<svg width="256" height="256" viewBox="0 0 256 256" fill="none" xmlns="http://www.w3.org/2000/svg">
<rect width="256" height="256" rx="50" fill="#111827"/>
<path d="M129.496 174.792C118.403 174.792 109.613 171.72 103.128 165.576C96.6427 159.347 93.4 150.472 93.4 138.952V117.448C93.4 105.928 96.6427 97.096 103.128 90.952C109.613 84.7227 118.403 81.608 129.496 81.608C140.504 81.608 148.995 84.6373 154.968 90.696C161.027 96.6693 164.056 104.904 164.056 115.4V116.168H147.416V114.888C147.416 109.597 145.923 105.245 142.936 101.832C140.035 98.4187 135.555 96.712 129.496 96.712C123.523 96.712 118.829 98.5467 115.416 102.216C112.003 105.885 110.296 110.877 110.296 117.192V139.208C110.296 145.437 112.003 150.429 115.416 154.184C118.829 157.853 123.523 159.688 129.496 159.688C135.555 159.688 140.035 157.981 142.936 154.568C145.923 151.069 147.416 146.717 147.416 141.512V139.208H164.056V141C164.056 151.496 161.027 159.773 154.968 165.832C148.995 171.805 140.504 174.792 129.496 174.792Z" fill="white"/>
</svg>
